<?xml version="1.0" encoding="UTF-8"?>
<svg version="1.1" viewBox="0 0 2048 492" width="1280" height="1280" xmlns="http://www.w3.org/2000/svg">
<path transform="translate(95,97)" d="m0 0h967v314l-1 1h-965l-1-1z" fill="#35B4FE"/>
<path transform="translate(0,50)" d="m0 0h2048v408h-2048zm25 24v360h2e3v-360z"/>
<path transform="translate(1497,175)" d="m0 0h10l15 2 15 5 11 6 10 8 9 10 9 17 3 12 1 7v17l-4 18-9 17-11 12-11 8-16 7-13 3-17 1-17-2-13-4-15-8-13-12-7-10-6-12-3-11-1-6v-19l3-15 8-17 8-10 11-10 15-8 18-5zm-3 39-11 4-10 9-4 7-3 10v13l3 10 7 10 9 6 9 3h17l12-5 6-5 6-9 3-10v-13l-3-10-5-8-5-5-8-5-7-2z" fill="#35B4FE"/>
<path transform="translate(1603,178)" d="m0 0h51l26 1 12 3 10 5 10 8 7 11 4 12 1 15-2 13-5 12-9 10-6 4h-2l10 19 13 23 3 5-1 3h-44l-3-3-15-29-4-8-16-1 1 40-5 1h-36l-1-1v-142zm40 34-1 2v34h24l9-3 6-7 1-3v-10l-3-6-6-5-9-2z" fill="#35B4FE"/>
<path transform="translate(340,183)" d="m0 0h27l14 1v51h44v-52h28l13 1 1 23v119l-1 1h-40l-1-1v-53l-43 1-1 52-1 1h-40l-1-39v-104z" fill="#FEFEFE"/>
<path transform="translate(682,184)" d="m0 0h69l15 3 12 5 9 7 7 8 5 11 3 13v12l-3 14-6 12-8 9-11 7-15 5-20 2h-15v33l-2 2h-39l-1-1z" fill="#FEFEFE"/>
<path transform="translate(880,184)" d="m0 0h40l6 13 19 49 16 41 11 28 3 7v5h-42l-4-6-5-14h-49l-3 9-4 10-2 1h-41l-1-3 12-30 19-49 14-36 10-24z" fill="#FEFEFE"/>
<path transform="translate(555,184)" d="m0 0h39l6 12 16 42 11 28 21 53 2 7-1 1h-42l-3-5-6-15h-46l-3 3-6 15-3 2h-41l1-7 12-30 19-49 20-51z" fill="#FEFEFE"/>
<path transform="translate(1207,175)" d="m0 0 16 1 12 3 12 6 10 9 6 10 3 8 1 11-1 1h-38l-4-11-6-4-4-1h-9l-8 4-2 5 1 6 6 5 10 4 22 6 12 5 11 7 7 8 4 8 2 14-2 14-5 10-8 9-10 6-13 4-5 1h-29l-15-4-11-6-9-8-6-10-3-11v-10h39l3 9 5 5 4 2h15l6-4 1-2v-8l-4-5-12-5-26-7-14-7-10-10-5-10-2-11 1-12 4-11 6-8 8-7 10-5 12-3z" fill="#35B4FE"/>
<path transform="translate(1750,178)" d="m0 0h97l1 1v32l-1 1h-56v21h52v32l-1 1h-51v22h59v33l-1 1h-99z" fill="#35B4FE"/>
<path transform="translate(1284,178)" d="m0 0 127 1v37l-1 1h-41l-1 104-5 1h-36l-1-1v-105l-10 1h-33v-38z" fill="#35B4FE"/>
<path transform="translate(174,184)" d="m0 0h128l1 1v37l-43 1-1 103-1 1h-39l-1-1v-104h-43l-1-9z" fill="#FEFEFE"/>
<path transform="translate(726,218)" d="m0 0h16l11 4 6 7 2 6-1 9-4 7-8 5-5 1h-20v-38z" fill="#35B4FE"/>
<path transform="translate(573,234)" d="m0 0 3 1 14 39v3h-32l1-5 11-30z" fill="#35B4FE"/>
<path transform="translate(899,234)" d="m0 0h2l14 39 1 4h-32l1-6 13-36z" fill="#35B4FE"/>
</svg>
